<svg width="41" height="42" viewBox="0 0 41 42" fill="none" xmlns="http://www.w3.org/2000/svg">
<g clip-path="url(#clip0_129_55)">
<path d="M3.56632 0.24585C5.79931 2.00381 8.25634 3.80948 10.9411 5.61515C13.6258 7.42082 16.3105 9.06868 18.819 10.489C21.4495 9.52749 23.9991 8.35793 26.4435 6.99142C29.6383 5.20904 32.6391 3.09965 35.3975 0.697268L39.7092 3.46817C36.5343 5.85895 33.234 8.07881 29.8224 10.1183C26.54 12.081 23.1592 13.8744 19.6931 15.4913C12.6158 16.273 7.51079 22.5598 8.06536 29.232C8.65667 36.3519 15.5136 41.8717 23.0389 40.7376C21.5074 41.2478 17.2691 42.4442 12.535 40.7376C8.1278 39.1485 2.8024 34.8655 2.56368 28.6081C2.32863 22.4424 7.11413 16.4345 14.1914 14.8674C12.2106 13.0935 10.1294 11.3025 7.94783 9.49441C5.34757 7.34375 2.79506 5.33378 0.290283 3.4645L3.56632 0.24585Z" fill="white"/>
</g>
<defs>
<clipPath id="clip0_129_55">
<rect width="40.0286" height="41.802" fill="white"/>
</clipPath>
</defs>
</svg>
