<svg width="81" height="81" viewBox="0 0 81 81" fill="none" xmlns="http://www.w3.org/2000/svg">
<path d="M40.5 0.341064C18.4443 0.341064 0.5 18.2854 0.5 40.3411C0.5 62.3967 18.4443 80.3411 40.5 80.3411C62.5556 80.3411 80.5 62.3967 80.5 40.3411C80.5 32.3463 78.1342 24.8967 74.0768 18.6393L72.5245 20.1916L71.5326 21.1835C74.99 26.7608 77.0217 33.3098 77.0217 40.3411C77.0217 60.4802 60.6391 76.8628 40.5 76.8628C20.3609 76.8628 3.97826 60.4802 3.97826 40.3411C3.97826 20.2019 20.3609 3.81933 40.5 3.81933C49.0449 3.81933 56.8832 6.80618 63.1087 11.7439V15.2731L58.873 19.5089C53.968 15.1713 47.5468 12.515 40.5 12.515C25.1574 12.515 12.6739 24.9985 12.6739 40.3411C12.6739 55.6837 25.1574 68.1672 40.5 68.1672C55.8426 68.1672 68.3261 55.6837 68.3261 40.3411C68.3261 34.5515 66.5444 29.1701 63.5061 24.7127L60.9857 27.233C63.417 31.0226 64.8478 35.5132 64.8478 40.3411C64.8478 53.7672 53.9261 64.6889 40.5 64.6889C27.0739 64.6889 16.1522 53.7672 16.1522 40.3411C16.1522 26.915 27.0739 15.9932 40.5 15.9932C46.5892 15.9932 52.1437 18.2571 56.4137 21.9681L50.2452 28.1366C47.5693 25.9903 44.1896 24.6889 40.5 24.6889C31.8704 24.6889 24.8478 31.7115 24.8478 40.3411C24.8478 48.9706 31.8704 55.9932 40.5 55.9932C49.1296 55.9932 56.1522 48.9706 56.1522 40.3411C56.1522 37.9289 55.5874 35.6539 54.6101 33.6121L51.9572 36.2616C52.4129 37.5381 52.6739 38.9098 52.6739 40.3411C52.6739 47.0541 47.213 52.515 40.5 52.515C33.787 52.515 28.3261 47.0541 28.3261 40.3411C28.3261 33.628 33.787 28.1672 40.5 28.1672C43.2304 28.1672 45.7437 29.082 47.7758 30.606L41.3967 36.9851C41.1044 36.9054 40.803 36.8643 40.5 36.8628C39.5775 36.8628 38.6928 37.2293 38.0405 37.8816C37.3882 38.5339 37.0217 39.4186 37.0217 40.3411C37.0217 41.2636 37.3882 42.1483 38.0405 42.8006C38.6928 43.4529 39.5775 43.8193 40.5 43.8193C41.4225 43.8193 42.3072 43.4529 42.9595 42.8006C43.6118 42.1483 43.9783 41.2636 43.9783 40.3411C43.9781 40.0371 43.9382 39.7345 43.8594 39.4409L65.5679 17.7324H70.0652L78.7609 9.03672H71.8043V2.08019L65.0686 8.81593C58.2824 3.51384 49.7597 0.341064 40.5 0.341064Z" fill="white"/>
</svg>
