<svg width="222" height="42" viewBox="0 0 222 42" fill="none" xmlns="http://www.w3.org/2000/svg">
<path d="M46.6508 10.1818H51.8177L56.7928 19.5781H57.0059L61.9811 10.1818H67.148L59.1899 24.2869V32H54.6089V24.2869L46.6508 10.1818ZM73.548 32.3196C71.8932 32.3196 70.4621 31.968 69.2547 31.2649C68.0544 30.5547 67.1275 29.5675 66.4741 28.3033C65.8207 27.032 65.494 25.5582 65.494 23.8821C65.494 22.1918 65.8207 20.7145 66.4741 19.4503C67.1275 18.179 68.0544 17.1918 69.2547 16.4886C70.4621 15.7784 71.8932 15.4233 73.548 15.4233C75.2028 15.4233 76.6304 15.7784 77.8307 16.4886C79.038 17.1918 79.9684 18.179 80.6219 19.4503C81.2753 20.7145 81.602 22.1918 81.602 23.8821C81.602 25.5582 81.2753 27.032 80.6219 28.3033C79.9684 29.5675 79.038 30.5547 77.8307 31.2649C76.6304 31.968 75.2028 32.3196 73.548 32.3196ZM73.5693 28.804C74.3221 28.804 74.9507 28.5909 75.455 28.1648C75.9592 27.7315 76.3392 27.142 76.5949 26.3963C76.8576 25.6506 76.989 24.8018 76.989 23.8501C76.989 22.8984 76.8576 22.0497 76.5949 21.304C76.3392 20.5582 75.9592 19.9687 75.455 19.5355C74.9507 19.1023 74.3221 18.8857 73.5693 18.8857C72.8094 18.8857 72.1701 19.1023 71.6517 19.5355C71.1403 19.9687 70.7532 20.5582 70.4905 21.304C70.2348 22.0497 70.1069 22.8984 70.1069 23.8501C70.1069 24.8018 70.2348 25.6506 70.4905 26.3963C70.7532 27.142 71.1403 27.7315 71.6517 28.1648C72.1701 28.5909 72.8094 28.804 73.5693 28.804ZM95.0466 25.0327V15.6364H99.5849V32H95.2277V29.0277H95.0572C94.6879 29.9865 94.0736 30.7571 93.2142 31.3395C92.3619 31.9219 91.3214 32.2131 90.0927 32.2131C88.999 32.2131 88.0366 31.9645 87.2057 31.4673C86.3747 30.9702 85.7248 30.2635 85.2561 29.3473C84.7944 28.4311 84.5601 27.3338 84.553 26.0554V15.6364H89.0913V25.2457C89.0984 26.2116 89.3576 26.9751 89.869 27.5362C90.3804 28.0973 91.0657 28.3778 91.9251 28.3778C92.472 28.3778 92.9834 28.2536 93.4592 28.005C93.9351 27.7493 94.3186 27.3729 94.6098 26.8757C94.9081 26.3786 95.0537 25.7642 95.0466 25.0327ZM103.215 32V15.6364H107.615V18.4915H107.785C108.084 17.4759 108.584 16.7088 109.288 16.1903C109.991 15.6648 110.8 15.402 111.716 15.402C111.944 15.402 112.189 15.4162 112.452 15.4446C112.714 15.473 112.945 15.5121 113.144 15.5618V19.5888C112.931 19.5249 112.636 19.468 112.26 19.4183C111.883 19.3686 111.539 19.3438 111.226 19.3438C110.559 19.3438 109.962 19.4893 109.437 19.7805C108.918 20.0646 108.506 20.4624 108.201 20.9737C107.903 21.4851 107.753 22.0746 107.753 22.7422V32H103.215ZM134.826 17.8203H130.16C130.075 17.2166 129.901 16.6804 129.638 16.2116C129.375 15.7358 129.038 15.331 128.626 14.9972C128.214 14.6634 127.738 14.4077 127.199 14.2301C126.666 14.0526 126.087 13.9638 125.462 13.9638C124.333 13.9638 123.349 14.2443 122.511 14.8054C121.673 15.3594 121.023 16.169 120.561 17.2344C120.1 18.2926 119.869 19.5781 119.869 21.0909C119.869 22.6463 120.1 23.9531 120.561 25.0114C121.03 26.0696 121.684 26.8686 122.522 27.4084C123.36 27.9482 124.329 28.218 125.43 28.218C126.048 28.218 126.62 28.1364 127.145 27.973C127.678 27.8097 128.15 27.5717 128.562 27.2592C128.974 26.9396 129.315 26.5526 129.585 26.098C129.862 25.6435 130.054 25.125 130.16 24.5426L134.826 24.5639C134.706 25.5653 134.404 26.5312 133.921 27.4616C133.445 28.3849 132.802 29.2124 131.993 29.9439C131.19 30.6683 130.231 31.2436 129.116 31.6697C128.008 32.0888 126.755 32.2983 125.356 32.2983C123.409 32.2983 121.669 31.858 120.135 30.9773C118.608 30.0966 117.401 28.8217 116.513 27.1527C115.633 25.4837 115.192 23.4631 115.192 21.0909C115.192 18.7116 115.64 16.6875 116.534 15.0185C117.429 13.3494 118.644 12.0781 120.178 11.2045C121.712 10.3239 123.438 9.88352 125.356 9.88352C126.62 9.88352 127.792 10.0611 128.871 10.4162C129.958 10.7713 130.92 11.2898 131.758 11.9716C132.596 12.6463 133.278 13.4737 133.804 14.4538C134.336 15.4339 134.677 16.5561 134.826 17.8203ZM145.443 32.3196C143.788 32.3196 142.357 31.968 141.149 31.2649C139.949 30.5547 139.022 29.5675 138.369 28.3033C137.715 27.032 137.389 25.5582 137.389 23.8821C137.389 22.1918 137.715 20.7145 138.369 19.4503C139.022 18.179 139.949 17.1918 141.149 16.4886C142.357 15.7784 143.788 15.4233 145.443 15.4233C147.097 15.4233 148.525 15.7784 149.725 16.4886C150.933 17.1918 151.863 18.179 152.516 19.4503C153.17 20.7145 153.496 22.1918 153.496 23.8821C153.496 25.5582 153.17 27.032 152.516 28.3033C151.863 29.5675 150.933 30.5547 149.725 31.2649C148.525 31.968 147.097 32.3196 145.443 32.3196ZM145.464 28.804C146.217 28.804 146.845 28.5909 147.349 28.1648C147.854 27.7315 148.234 27.142 148.489 26.3963C148.752 25.6506 148.884 24.8018 148.884 23.8501C148.884 22.8984 148.752 22.0497 148.489 21.304C148.234 20.5582 147.854 19.9687 147.349 19.5355C146.845 19.1023 146.217 18.8857 145.464 18.8857C144.704 18.8857 144.065 19.1023 143.546 19.5355C143.035 19.9687 142.648 20.5582 142.385 21.304C142.129 22.0497 142.001 22.8984 142.001 23.8501C142.001 24.8018 142.129 25.6506 142.385 26.3963C142.648 27.142 143.035 27.7315 143.546 28.1648C144.065 28.5909 144.704 28.804 145.464 28.804ZM166.941 25.0327V15.6364H171.479V32H167.122V29.0277H166.952C166.582 29.9865 165.968 30.7571 165.109 31.3395C164.256 31.9219 163.216 32.2131 161.987 32.2131C160.894 32.2131 159.931 31.9645 159.1 31.4673C158.269 30.9702 157.619 30.2635 157.151 29.3473C156.689 28.4311 156.455 27.3338 156.447 26.0554V15.6364H160.986V25.2457C160.993 26.2116 161.252 26.9751 161.764 27.5362C162.275 28.0973 162.96 28.3778 163.82 28.3778C164.367 28.3778 164.878 28.2536 165.354 28.005C165.83 27.7493 166.213 27.3729 166.504 26.8757C166.803 26.3786 166.948 25.7642 166.941 25.0327ZM175.11 32V15.6364H179.509V18.4915H179.68C179.978 17.4759 180.479 16.7088 181.182 16.1903C181.885 15.6648 182.695 15.402 183.611 15.402C183.838 15.402 184.083 15.4162 184.346 15.4446C184.609 15.473 184.84 15.5121 185.039 15.5618V19.5888C184.826 19.5249 184.531 19.468 184.154 19.4183C183.778 19.3686 183.433 19.3438 183.121 19.3438C182.453 19.3438 181.857 19.4893 181.331 19.7805C180.813 20.0646 180.401 20.4624 180.095 20.9737C179.797 21.4851 179.648 22.0746 179.648 22.7422V32H175.11ZM201 20.3026L196.845 20.5582C196.774 20.2031 196.621 19.8835 196.387 19.5994C196.153 19.3082 195.844 19.0774 195.46 18.907C195.084 18.7294 194.633 18.6406 194.107 18.6406C193.404 18.6406 192.811 18.7898 192.328 19.0881C191.845 19.3793 191.604 19.7699 191.604 20.2599C191.604 20.6506 191.76 20.9808 192.072 21.2507C192.385 21.5206 192.921 21.7372 193.681 21.9006L196.643 22.4972C198.234 22.8239 199.42 23.3494 200.201 24.0739C200.982 24.7983 201.373 25.75 201.373 26.929C201.373 28.0014 201.057 28.9425 200.425 29.7521C199.8 30.5618 198.94 31.1939 197.847 31.6484C196.76 32.0959 195.506 32.3196 194.086 32.3196C191.92 32.3196 190.194 31.8686 188.908 30.9666C187.63 30.0575 186.881 28.8217 186.661 27.2592L191.124 27.0249C191.259 27.6854 191.586 28.1896 192.104 28.5376C192.623 28.8786 193.287 29.049 194.097 29.049C194.892 29.049 195.531 28.8963 196.014 28.5909C196.504 28.2784 196.753 27.8771 196.76 27.3871C196.753 26.9751 196.579 26.6378 196.238 26.375C195.897 26.1051 195.371 25.8991 194.661 25.7571L191.827 25.1925C190.229 24.8729 189.04 24.3189 188.259 23.5305C187.484 22.7422 187.097 21.7372 187.097 20.5156C187.097 19.4645 187.381 18.5589 187.95 17.799C188.525 17.0391 189.331 16.4531 190.368 16.0412C191.412 15.6293 192.634 15.4233 194.033 15.4233C196.099 15.4233 197.726 15.8601 198.912 16.7337C200.105 17.6072 200.801 18.7969 201 20.3026ZM211.688 32.3196C210.005 32.3196 208.556 31.9787 207.341 31.2969C206.134 30.608 205.204 29.6349 204.55 28.3778C203.897 27.1136 203.57 25.6186 203.57 23.8928C203.57 22.2095 203.897 20.7322 204.55 19.4609C205.204 18.1896 206.123 17.1989 207.31 16.4886C208.503 15.7784 209.902 15.4233 211.507 15.4233C212.587 15.4233 213.591 15.5973 214.522 15.9453C215.459 16.2862 216.276 16.8011 216.972 17.4901C217.675 18.179 218.222 19.0455 218.613 20.0895C219.003 21.1264 219.199 22.3409 219.199 23.733V24.9794H205.381V22.1669H214.927C214.927 21.5135 214.785 20.9347 214.501 20.4304C214.216 19.9261 213.822 19.532 213.318 19.2479C212.821 18.9567 212.242 18.8111 211.582 18.8111C210.893 18.8111 210.282 18.9709 209.749 19.2905C209.224 19.603 208.812 20.0256 208.513 20.5582C208.215 21.0838 208.062 21.6697 208.055 22.3161V24.9901C208.055 25.7997 208.204 26.4993 208.503 27.0888C208.808 27.6783 209.238 28.1328 209.792 28.4524C210.346 28.772 211.003 28.9318 211.763 28.9318C212.267 28.9318 212.729 28.8608 213.148 28.7188C213.567 28.5767 213.925 28.3636 214.224 28.0795C214.522 27.7955 214.749 27.4474 214.905 27.0355L219.103 27.3125C218.89 28.321 218.453 29.2017 217.792 29.9545C217.139 30.7003 216.294 31.2827 215.257 31.7017C214.227 32.1136 213.038 32.3196 211.688 32.3196Z" fill="white"/>
<g clip-path="url(#clip0_166_729)">
<path d="M3.5662 0.24585C5.79919 2.00381 8.25622 3.80948 10.941 5.61515C13.6257 7.42082 16.3104 9.06868 18.8189 10.489C21.4494 9.52749 23.9989 8.35793 26.4434 6.99142C29.6382 5.20904 32.639 3.09965 35.3974 0.697268L39.7091 3.46817C36.5341 5.85895 33.2338 8.07881 29.8222 10.1183C26.5399 12.081 23.159 13.8744 19.693 15.4913C12.6157 16.273 7.51066 22.5598 8.06524 29.232C8.65654 36.3519 15.5135 41.8717 23.0388 40.7376C21.5073 41.2478 17.269 42.4442 12.5349 40.7376C8.12768 39.1485 2.80228 34.8655 2.56356 28.6081C2.3285 22.4424 7.11401 16.4345 14.1913 14.8674C12.2105 13.0935 10.1293 11.3025 7.94771 9.49441C5.34745 7.34375 2.79493 5.33378 0.290161 3.4645L3.5662 0.24585Z" fill="white"/>
</g>
<defs>
<clipPath id="clip0_166_729">
<rect width="40.0286" height="41.802" fill="white"/>
</clipPath>
</defs>
</svg>
