<svg width="81" height="81" viewBox="0 0 81 81" fill="none" xmlns="http://www.w3.org/2000/svg">
<path d="M59.6229 0.321777C48.1106 0.321777 38.7458 9.68657 38.7458 21.1989C38.7458 23.8357 39.3235 26.3298 40.2137 28.6472L2.97202 65.8889C-0.324007 69.185 -0.324007 74.5537 2.97202 77.8498C6.26805 81.1458 11.6368 81.1458 14.9329 77.8498L52.1746 40.6081C54.492 41.4983 56.9861 42.076 59.6229 42.076C71.1352 42.076 80.5 32.7112 80.5 21.1989C80.5 18.9086 80.1398 16.7272 79.467 14.6748L78.5428 11.9564L76.5855 13.968L64.4072 26.0919L57.5026 23.3192L54.7298 16.4145L66.8538 4.23623L68.8654 2.27901L66.147 1.35476C64.0946 0.681961 61.9131 0.321777 59.6229 0.321777ZM59.6229 3.80129C60.4588 3.80129 61.2132 4.06634 62.0151 4.18187L51.4134 14.7292L50.5979 15.5447L54.5124 25.3308L54.7842 26.0376L55.491 26.3094L65.2771 30.2239L66.0926 29.4084L76.6399 18.8067C76.7554 19.6086 77.0205 20.363 77.0205 21.1989C77.0205 30.8287 69.2527 38.5965 59.6229 38.5965C57.0608 38.5965 54.6415 38.0188 52.4464 37.0198L51.3591 36.5305L12.4863 75.4032C10.5223 77.3672 7.38258 77.3672 5.41855 75.4032C3.45453 73.4392 3.45453 70.2995 5.41855 68.3355L44.2913 29.4627L43.802 28.3754C42.803 26.1803 42.2253 23.7609 42.2253 21.1989C42.2253 11.569 49.9931 3.80129 59.6229 3.80129Z" fill="white"/>
</svg>
