<svg width="221" height="15" viewBox="0 0 221 15" fill="none" xmlns="http://www.w3.org/2000/svg">
<path d="M203.476 1.84615C198.683 1.5 193.807 1.15385 188.931 0.807692C187.36 0.692308 185.707 0.692308 184.137 0.576923C180.666 0.461538 177.195 0.346154 173.724 0.230769C171.823 0.115385 169.839 0.115385 167.938 0C167.36 0 166.781 0 166.285 0C165.046 0 163.806 0 162.484 0C156.781 0 151.078 0 145.376 0C144.053 0 142.648 0 141.326 0.115385C137.938 0.230769 134.632 0.230769 131.243 0.346154C127.441 0.461538 123.64 0.461538 119.838 0.576923C113.722 0.807692 107.523 1.03846 101.408 1.26923C97.8538 1.38462 94.3 1.5 90.7462 1.61538C84.6303 1.96154 78.5145 2.30769 72.3986 2.65385C69.0101 2.88462 65.7042 3 62.3157 3.23077C55.9519 3.80769 49.5881 4.26923 43.2243 4.73077C39.8358 4.96154 36.4472 5.19231 33.0587 5.53846C26.7776 6.23077 20.4138 7.03846 14.1326 7.84615C12.8103 7.96154 11.4053 8.19231 10.0003 8.30769C7.35557 8.65385 4.62822 9.23077 1.90088 9.69231C1.73558 9.69231 1.57029 9.80769 1.405 9.80769C1.07441 9.80769 0.826468 10.0385 0.578528 10.3846C0.165294 10.9615 0 11.6538 0 12.3462C0 13.0385 0.165294 13.7308 0.578528 14.1923C0.909115 14.6538 1.48764 15 1.90088 15C5.20675 14.5385 8.42997 13.9615 11.7358 13.5C14.7938 13.1538 17.8517 12.8077 20.9096 12.4615C24.2155 12.1154 27.5214 11.6538 30.9099 11.3077C32.2323 11.1923 33.5546 10.9615 34.9596 10.8462C40.1663 10.5 45.2904 10.0385 50.4972 9.69231C53.7204 9.46154 56.9437 9.23077 60.1669 9C61.4892 8.88461 62.8116 8.76923 64.1339 8.65385C69.258 8.30769 74.3821 8.07692 79.5062 7.73077C82.6468 7.61538 85.7047 7.38461 88.8453 7.26923C89.9197 7.26923 90.9115 7.15385 91.9859 7.15385C97.5232 6.92308 103.061 6.80769 108.598 6.57692C111.656 6.46154 114.796 6.34615 117.854 6.23077C118.929 6.23077 120.086 6.11538 121.16 6.11538C126.863 6 132.565 6 138.351 5.88462C141.905 5.88462 145.458 5.76923 149.012 5.76923C155.045 5.76923 161.161 5.76923 167.194 5.88462C168.352 5.88462 169.591 6 170.748 6C174.137 6.11538 177.443 6.23077 180.831 6.46154C183.311 6.57692 185.873 6.69231 188.352 6.80769C190.17 6.92308 191.906 7.03846 193.724 7.15385C198.931 7.5 204.22 7.96154 209.427 8.42308C210.749 8.53846 212.072 8.65385 213.394 8.76923C214.799 8.88462 216.287 9 217.692 9.23077C217.94 9.23077 218.105 9.34615 218.353 9.46154C218.931 9.57692 219.427 9.57692 219.923 9.11538C220.419 8.76923 220.75 8.07692 220.915 7.38462C221.245 5.88462 220.584 4.26923 219.427 3.80769C218.436 3.46154 217.444 3.34615 216.535 3.11538C215.873 3 215.212 2.88462 214.551 2.88462C213.229 2.65385 211.906 2.65385 210.667 2.42308C208.353 2.30769 205.873 2.07692 203.476 1.84615Z" fill="#20B46A"/>
</svg>
